<svg width="462" height="496" viewBox="0 0 462 496" fill="none" xmlns="http://www.w3.org/2000/svg">
<path d="M132.543 187.756H92.4299C91.3133 187.756 90.2076 187.536 89.1765 187.109C88.1449 186.681 87.2077 186.054 86.419 185.264C85.6298 184.474 85.0046 183.536 84.5779 182.505C84.1518 181.472 83.9329 180.366 83.9346 179.25V82.8076C83.9346 81.6921 84.1545 80.5875 84.5812 79.557C85.0084 78.527 85.6342 77.5908 86.4234 76.8022C87.212 76.0135 88.1488 75.3883 89.1793 74.9622C90.2098 74.536 91.3144 74.3167 92.4299 74.3178H158.654C159.771 74.3139 160.878 74.5311 161.912 74.9556C162.945 75.3806 163.885 76.0053 164.677 76.794C165.468 77.5826 166.096 78.5199 166.525 79.5515C166.954 80.5837 167.176 81.6899 167.176 82.8076V108.82" stroke="#959595" stroke-width="4.5" stroke-miterlimit="10"/>
<path d="M156.641 86.0039H95.3095C92.9622 86.0039 91.0591 87.907 91.0591 90.2543V101.706C91.0591 104.053 92.9622 105.956 95.3095 105.956H156.641C158.989 105.956 160.892 104.053 160.892 101.706V90.2543C160.892 87.907 158.989 86.0039 156.641 86.0039Z" stroke="#959595" stroke-width="4.5" stroke-miterlimit="10"/>
<path d="M125.545 94.4065C126.684 94.4065 127.607 93.4829 127.607 92.3444C127.607 91.2053 126.684 90.2822 125.545 90.2822C124.406 90.2822 123.483 91.2053 123.483 92.3444C123.483 93.4829 124.406 94.4065 125.545 94.4065Z" fill="#959595"/>
<path d="M119.78 101.684C119.732 100.898 119.845 100.11 120.112 99.3693C120.38 98.6283 120.796 97.9499 121.336 97.3763C121.875 96.8026 122.526 96.3452 123.249 96.0326C123.972 95.72 124.751 95.5587 125.539 95.5587C126.327 95.5587 127.106 95.72 127.829 96.0326C128.552 96.3452 129.203 96.8026 129.743 97.3763C130.282 97.9499 130.698 98.6283 130.966 99.3693C131.233 100.11 131.346 100.898 131.298 101.684H119.78Z" fill="#959595"/>
<path d="M125.967 127.34C123.768 127.34 121.619 127.992 119.791 129.214C117.963 130.436 116.538 132.171 115.696 134.203C114.855 136.234 114.635 138.47 115.064 140.626C115.493 142.782 116.551 144.763 118.106 146.318C119.661 147.873 121.642 148.932 123.798 149.36C125.954 149.789 128.19 149.569 130.221 148.728C132.253 147.886 133.989 146.461 135.21 144.633C136.432 142.805 137.084 140.656 137.084 138.457C137.084 136.997 136.798 135.551 136.239 134.202C135.68 132.853 134.862 131.627 133.829 130.595C132.797 129.562 131.571 128.744 130.222 128.185C128.873 127.626 127.427 127.34 125.967 127.34ZM125.967 146.886C125.582 146.823 125.233 146.625 124.98 146.328C124.728 146.03 124.589 145.653 124.589 145.263C124.589 144.873 124.728 144.496 124.98 144.199C125.233 143.901 125.582 143.703 125.967 143.64C126.202 143.601 126.444 143.614 126.674 143.678C126.904 143.741 127.117 143.854 127.299 144.009C127.481 144.163 127.628 144.355 127.728 144.572C127.828 144.789 127.88 145.024 127.88 145.263C127.88 145.502 127.828 145.738 127.728 145.955C127.628 146.171 127.481 146.363 127.299 146.518C127.117 146.672 126.904 146.785 126.674 146.849C126.444 146.913 126.202 146.925 125.967 146.886ZM128.024 134.388C127.759 136.846 127.306 139.281 126.669 141.671C126.602 141.799 126.502 141.905 126.378 141.98C126.255 142.054 126.114 142.094 125.97 142.094C125.826 142.094 125.685 142.054 125.561 141.98C125.438 141.905 125.337 141.799 125.271 141.671C124.763 139.909 124.374 138.115 124.108 136.302C123.883 134.985 123.115 132.846 123.85 131.563C124.497 130.417 126.329 130.28 127.388 130.878C128.687 131.618 128.177 133.186 128.024 134.388Z" fill="#959595"/>
<path d="M98.0405 114.863H152.341" stroke="#959595" stroke-width="4.5" stroke-miterlimit="10"/>
<path d="M98.0405 120.21H152.341" stroke="#959595" stroke-width="4.5" stroke-miterlimit="10"/>
<path d="M98.0405 154.625H152.341" stroke="#959595" stroke-width="4.5" stroke-miterlimit="10"/>
<path d="M110.655 159.683H139.727" stroke="#959595" stroke-width="4.5" stroke-miterlimit="10"/>
<path d="M433.503 167.147H350.267C343.336 167.147 337.718 172.765 337.718 179.695V321.855C337.718 328.786 343.336 334.404 350.267 334.404H433.503C440.433 334.404 446.051 328.786 446.051 321.855V179.695C446.051 172.765 440.433 167.147 433.503 167.147Z" fill="#F7C3DB"/>
<path d="M319.724 167.147H261.765C254.835 167.147 249.217 172.765 249.217 179.695V321.855C249.217 328.786 254.835 334.404 261.765 334.404H319.724C326.654 334.404 332.272 328.786 332.272 321.855V179.695C332.272 172.765 326.654 167.147 319.724 167.147Z" fill="#F7C3DB"/>
<path d="M254.016 419.455H445.453C448.761 419.454 451.933 418.14 454.272 415.801C456.612 413.463 457.928 410.291 457.93 406.984V169.352C457.931 167.713 457.609 166.09 456.982 164.576C456.355 163.061 455.436 161.686 454.278 160.527C453.119 159.368 451.743 158.45 450.229 157.823C448.715 157.196 447.092 156.873 445.453 156.875H315.353L281.35 157.077H281.251L264.058 157.747H264.003L259.478 157.922H259.078L258.744 160.615L258.085 165.622C258.093 165.631 258.096 165.643 258.096 165.655C258.096 165.667 258.093 165.678 258.085 165.688L252.733 173.618L251.636 175.225L248.614 194.563V194.656C248.548 194.629 248.482 194.591 248.4 194.547C248.334 194.508 248.272 194.464 248.214 194.415C247.197 193.649 246.433 192.597 246.02 191.393C245.016 188.848 244.775 185.476 244.764 182.799L244.106 197.492V197.547L243.19 217.175L242.965 222.446C243.393 221.683 244.007 220.587 244.72 219.276L242.444 233.82L241.972 244.301L240.799 270.785L240.755 271.772V272.151L240.448 278.6V278.748C240.448 278.748 239.57 297.675 239.57 297.702L239.488 299.457L238.473 307.119L235.512 328.557V406.984C235.512 409.218 236.114 411.411 237.255 413.333C238.396 415.254 240.033 416.833 241.994 417.903C245.707 419.916 249.815 419.647 253.895 419.51C254.992 419.477 256.089 419.428 257.186 419.368" fill="#F7C3DB"/>
<path d="M246.749 415.365C246.673 415.365 246.59 415.293 246.497 415.266C245.455 414.892 244.469 414.375 243.569 413.73C241.988 412.608 240.701 411.122 239.814 409.398C238.928 407.675 238.468 405.764 238.474 403.825V299.162L235.512 300.582L235.326 300.675L234.925 299.683L232.945 294.747L232.397 293.381L227.39 280.882C227.39 280.882 236.9 242.404 243.19 217.176C245.494 207.913 247.369 200.432 248.159 197.289C248.4 196.352 248.543 195.803 248.57 195.71C248.572 195.688 248.572 195.666 248.57 195.644C248.587 195.457 248.558 195.27 248.488 195.096C248.41 194.893 248.316 194.697 248.208 194.509C248.196 194.47 248.177 194.433 248.153 194.399C247.501 193.29 246.768 192.23 245.96 191.229L244.918 178.324L245.088 178.193L245.877 177.562L251.274 173.284L252.53 169.961L254.992 163.5L256.089 160.621H258.7H259.369H264.091L281.542 160.566H283.04L316.149 160.369H442.832C444.428 160.369 446.007 160.683 447.481 161.294C448.954 161.905 450.293 162.8 451.42 163.929C452.547 165.058 453.441 166.398 454.05 167.872C454.659 169.347 454.971 170.927 454.969 172.522V403.825C454.971 405.421 454.659 407 454.05 408.475C453.441 409.949 452.547 411.289 451.42 412.418C450.293 413.547 448.954 414.442 447.481 415.053C446.007 415.664 444.428 415.979 442.832 415.979H254.247" fill="#F7C3DB"/>
<path d="M259.424 157.198L263.91 157.171H264.003L281.224 157.077H281.345L315.348 156.875H445.454C448.763 156.876 451.935 158.191 454.275 160.53C456.614 162.87 457.929 166.043 457.931 169.352V406.984C457.928 410.291 456.612 413.463 454.273 415.801C451.934 418.14 448.761 419.454 445.454 419.455H247.649C244.426 419.455 241.334 418.175 239.055 415.895C236.776 413.616 235.496 410.525 235.496 407.302V381.355" stroke="#140109" stroke-width="4.5" stroke-miterlimit="10"/>
<path d="M433.503 346.687H261.765C254.835 346.687 249.217 352.305 249.217 359.235V394.121C249.217 401.052 254.835 406.67 261.765 406.67H433.503C440.433 406.67 446.051 401.052 446.051 394.121V359.235C446.051 352.305 440.433 346.687 433.503 346.687Z" fill="white"/>
<path d="M376.723 360.049H265.786C263.438 360.049 261.535 361.952 261.535 364.3V389.923C261.535 392.27 263.438 394.173 265.786 394.173H376.723C379.071 394.173 380.974 392.27 380.974 389.923V364.3C380.974 361.952 379.071 360.049 376.723 360.049Z" fill="#F7C3DB"/>
<path d="M356.821 374.422C358.772 374.422 360.353 372.841 360.353 370.891C360.353 368.94 358.772 367.359 356.821 367.359C354.87 367.359 353.289 368.94 353.289 370.891C353.289 372.841 354.87 374.422 356.821 374.422Z" fill="white"/>
<path d="M346.959 386.86C346.959 384.242 347.999 381.731 349.851 379.88C351.702 378.029 354.213 376.988 356.831 376.988C359.45 376.988 361.96 378.029 363.812 379.88C365.663 381.731 366.703 384.242 366.703 386.86H346.959Z" fill="white"/>
<path d="M411.105 360.054C407.666 360.05 404.302 361.067 401.441 362.976C398.58 364.884 396.349 367.598 395.031 370.775C393.712 373.952 393.366 377.449 394.035 380.822C394.705 384.196 396.36 387.295 398.791 389.728C401.223 392.161 404.321 393.818 407.694 394.489C411.067 395.161 414.564 394.817 417.742 393.5C420.919 392.185 423.635 389.955 425.545 387.095C427.456 384.235 428.475 380.873 428.474 377.433C428.475 375.151 428.026 372.892 427.153 370.784C426.281 368.675 425.002 366.76 423.389 365.146C421.776 363.532 419.861 362.252 417.754 361.378C415.646 360.504 413.386 360.054 411.105 360.054ZM411.105 390.618C410.761 390.634 410.418 390.58 410.095 390.459C409.773 390.339 409.479 390.154 409.23 389.916C408.981 389.679 408.783 389.393 408.647 389.077C408.512 388.76 408.442 388.42 408.442 388.076C408.442 387.731 408.512 387.391 408.647 387.074C408.783 386.758 408.981 386.473 409.23 386.235C409.479 385.997 409.773 385.812 410.095 385.692C410.418 385.572 410.761 385.517 411.105 385.534C411.759 385.564 412.376 385.845 412.828 386.319C413.28 386.792 413.532 387.421 413.532 388.076C413.532 388.73 413.28 389.359 412.828 389.833C412.376 390.306 411.759 390.587 411.105 390.618ZM414.302 371.066C413.754 374.839 413.31 378.799 412.185 382.452C411.933 383.335 410.271 383.335 409.992 382.452C409.195 379.699 408.586 376.895 408.171 374.061C407.82 372.004 406.619 368.658 407.77 366.662C408.785 364.869 411.648 364.655 413.293 365.565C415.344 366.728 414.522 369.19 414.302 371.066Z" fill="#F7C3DB"/>
<path d="M429.565 288.055C428.723 295.321 425.715 302.167 420.932 307.702C416.149 313.238 409.812 317.207 402.744 319.095C395.677 320.983 388.205 320.702 381.299 318.289C374.393 315.876 368.372 311.442 364.018 305.563C359.665 299.684 357.179 292.632 356.884 285.322C356.59 278.013 358.5 270.784 362.366 264.574C366.233 258.364 371.878 253.46 378.567 250.499C385.256 247.538 392.682 246.656 399.878 247.969C400.195 248.03 400.495 248.156 400.761 248.337C401.028 248.519 401.254 248.753 401.426 249.025C401.598 249.298 401.713 249.603 401.763 249.921C401.812 250.239 401.796 250.565 401.716 250.876L400.997 253.679L394.558 278.819C394.456 279.22 394.46 279.641 394.572 280.039C394.683 280.438 394.897 280.801 395.193 281.09C395.489 281.379 395.855 281.586 396.256 281.689C396.657 281.792 397.077 281.788 397.476 281.676L422.468 274.689L425.885 273.735C426.19 273.649 426.508 273.626 426.822 273.666C427.135 273.706 427.438 273.809 427.711 273.968C427.984 274.127 428.223 274.339 428.412 274.592C428.602 274.845 428.738 275.134 428.814 275.441C429.798 279.57 430.052 283.839 429.565 288.055Z" fill="white"/>
<path d="M430.426 262.147C430.544 262.453 430.597 262.781 430.58 263.109C430.564 263.437 430.479 263.758 430.33 264.051C430.182 264.344 429.974 264.603 429.719 264.81C429.465 265.018 429.169 265.17 428.852 265.256L426.499 265.914L406.147 271.602C405.748 271.712 405.327 271.717 404.926 271.614C404.526 271.511 404.159 271.304 403.864 271.015C403.568 270.725 403.354 270.363 403.242 269.965C403.131 269.566 403.126 269.145 403.229 268.744L408.489 248.277L408.993 246.313C409.073 246.001 409.215 245.708 409.413 245.454C409.61 245.199 409.857 244.989 410.14 244.834C410.423 244.68 410.734 244.585 411.055 244.557C411.376 244.528 411.699 244.566 412.004 244.668C416.145 246.097 419.931 248.396 423.109 251.411C426.286 254.426 428.781 258.086 430.426 262.147Z" fill="white"/>
<path d="M392.826 199.854C398.363 199.854 402.851 195.366 402.851 189.829C402.851 184.293 398.363 179.804 392.826 179.804C387.289 179.804 382.8 184.293 382.8 189.829C382.8 195.366 387.289 199.854 392.826 199.854Z" fill="#959595"/>
<path d="M429.807 211.986H356.826V213.993H429.807V211.986Z" fill="#959595"/>
<path d="M429.807 219.411H356.826V221.418H429.807V219.411Z" fill="#959595"/>
<path d="M429.807 226.181H356.826V228.188H429.807V226.181Z" fill="#959595"/>
<path d="M319.494 253.92H262.325V255.927H319.494V253.92Z" fill="#959595"/>
<path d="M319.494 262.02H262.325V264.028H319.494V262.02Z" fill="#959595"/>
<path d="M319.494 270.116H262.325V272.123H319.494V270.116Z" fill="#959595"/>
<path d="M319.494 278.216H262.325V280.224H319.494V278.216Z" fill="#959595"/>
<path d="M319.494 286.316H262.325V288.323H319.494V286.316Z" fill="#959595"/>
<path d="M254.482 196.884C254.482 196.884 271.856 224.245 291.655 232.845C311.454 241.444 317.64 245.245 325.214 242.168C332.788 239.091 347.327 234.781 357.572 204.326C367.816 173.871 372.698 157.84 373.06 150.464C373.422 143.087 353.053 149.148 353.053 149.148C353.053 149.148 342.084 181.478 318.051 195.907L283.823 159.754L254.482 196.884Z" fill="white"/>
<path d="M234.179 238.932L248.164 242.727C248.164 242.727 231.925 265.12 246.365 288.566C260.805 312.012 290.542 359.314 290.542 359.314L347.459 449.806L294.227 442.386L254.482 398.851L234.19 378.619L208.759 299.233L234.179 238.932Z" fill="white"/>
<path d="M5.83179 354.653C7.08925 355.333 8.54481 355.552 9.94683 355.272C11.3489 354.993 12.6093 354.232 13.5099 353.122L34.2079 327.746L50.9078 306.785L37.2353 299.107C35.8192 298.307 34.1432 298.102 32.5763 298.537C31.0088 298.972 29.6783 300.011 28.8771 301.427L3.39674 346.179C2.99084 346.893 2.7317 347.681 2.63457 348.496C2.53744 349.312 2.60424 350.139 2.83108 350.928C3.05791 351.717 3.44023 352.454 3.95554 353.093C4.47085 353.733 5.10873 354.263 5.83179 354.653Z" fill="#140109"/>
<path d="M320.887 474.349L338.113 491.296C339.6 492.762 341.603 493.585 343.691 493.588H386.77C388.107 493.594 389.416 493.21 390.538 492.484C391.66 491.758 392.546 490.721 393.088 489.499C393.631 488.279 393.806 486.926 393.593 485.607C393.38 484.288 392.787 483.059 391.887 482.071C390.755 480.804 389.19 480.006 387.5 479.833L363.604 477.382L320.887 474.349Z" fill="#140109"/>
<path d="M163.573 262.387C163.573 262.387 196.891 271.655 219.102 274.419C241.314 277.184 239.757 267.97 239.757 267.97L242.471 256.332C249.601 244.716 253.742 220.004 253.742 220.004L256.605 200.671L260.784 208.026L274.292 221.632L274.456 221.764C274.045 215.265 274.357 206.134 275.871 193.695C279.359 164.902 290.909 168.242 290.909 168.242L289.215 166.383C281.235 153.105 255.76 139.071 247.621 135.714C239.482 132.358 242.965 137.113 244.001 140.65C245.038 144.188 242.076 154.142 230.214 149.074C218.351 144.007 217.753 132.983 217.753 132.983H212.241C178.43 137.047 161.237 155.08 161.237 155.08C197.154 163.553 188.911 194.019 188.911 194.019L185.653 196.997C172.902 208.053 172.014 218.715 173.116 223.157C174.218 227.599 182.083 233.577 196.282 237.043C210.481 240.51 213.064 240.515 216.272 234.378C219.481 228.241 223.221 227.484 228.338 226.563C233.455 225.641 239.724 229.278 238.292 232.14C236.861 235.003 235.824 232.502 239.389 240.235C242.954 247.968 241.298 251.901 231.711 259.025C222.124 266.149 179.5 262.151 179.5 262.151C159.114 256.513 163.573 262.387 163.573 262.387Z" fill="#F72585"/>
<path d="M241.5 133.166V134.334V134.63C251.03 137.011 260.004 141.225 267.924 147.036C269.207 147.973 270.458 148.928 271.692 149.931C271.724 145.9 271.379 141.853 270.079 138.036C269.026 134.76 267.042 131.862 264.37 129.694C262.017 127.818 259.237 126.617 256.44 125.531C253.643 124.445 250.895 123.491 248.328 122.027C246.165 120.844 244.276 119.218 242.783 117.255C242.26 116.546 241.934 115.711 241.837 114.834C241.741 113.958 241.879 113.071 242.235 112.265C241.983 112.247 241.734 112.198 241.495 112.117L241.5 133.166Z" fill="#F7C3DB"/>
<path d="M241.5 133.166V134.334V134.63C251.03 137.011 260.004 141.225 267.924 147.036C269.207 147.973 270.458 148.928 271.692 149.931C271.724 145.9 271.379 141.853 270.079 138.036C269.026 134.76 267.042 131.862 264.37 129.694C262.017 127.818 259.237 126.617 256.44 125.531C253.643 124.445 250.895 123.491 248.328 122.027C246.165 120.844 244.276 119.218 242.783 117.255C242.26 116.546 241.934 115.711 241.837 114.834C241.741 113.958 241.879 113.071 242.235 112.265C241.983 112.247 241.734 112.198 241.495 112.117L241.5 133.166Z" fill="#F7C3DB"/>
<path d="M109.837 224.218C113.418 226.78 117.399 228.731 121.618 229.993C123.433 230.552 125.276 231.013 127.141 231.375C119.775 214.017 125.287 191.18 148.53 166.829C152.509 162.653 156.746 158.729 161.215 155.082C168.438 149.208 174.855 144.831 182.423 141.31C185.811 139.747 189.291 138.39 192.843 137.247C199.142 135.15 205.644 133.721 212.242 132.985C213.739 132.804 215.22 132.673 216.717 132.59C216.352 130.019 216.424 127.404 216.931 124.857C218.313 117.865 220.72 113.845 225.097 108.333C227.839 104.861 232.122 96.569 226.413 93.7061C222.81 91.9127 222.481 88.2217 224.176 86.028C225.607 84.1194 228.503 83.2474 232.073 85.4796C234.541 87.0591 237.47 87.1578 240.3 86.3845C242.498 85.1039 244.403 83.3779 245.894 81.3169C250.04 75.3773 250.188 66.3775 243.7 62.0174C240.163 59.6317 235.654 59.0559 231.426 59.5165C229.533 59.7244 227.666 60.1324 225.859 60.7341C225.852 60.7302 225.843 60.7286 225.835 60.7286C225.826 60.7286 225.818 60.7302 225.81 60.7341C218.132 64.8638 212.675 72.4981 210.042 81.103C208.496 86.187 206.752 91.2217 204.712 96.1576C203.033 100.205 201.865 105.125 198.13 107.889C196.569 109.043 194.797 109.882 192.915 110.357C185.856 114.832 176.067 112.249 168.35 111.294C162.181 110.451 155.9 111.082 150.021 113.137C143.44 116.466 137.78 121.781 133.19 128.691C125.605 140.126 133.634 156.612 120.949 165.628C117.11 168.343 112.722 169.988 108.527 172.094C102.538 175.138 97.7005 179.465 95.9126 186.129C92.3806 199.571 98.6657 216.106 109.837 224.218Z" fill="#F7C3DB"/>
<path d="M420.006 493.587H119.879" stroke="#140109" stroke-width="4.5" stroke-miterlimit="10"/>
<path d="M252.508 75.9022C253.279 77.5004 253.938 79.1495 254.482 80.8381C255.272 83.5803 254.416 85.2805 255.617 87.8965C256.029 88.8015 256.621 90.3316 257.263 91.8782C257.444 91.5162 257.608 91.2201 257.707 90.9897C262.413 80.5091 256.226 75.458 253.248 73.7304C253.058 74.473 252.811 75.1991 252.508 75.9022Z" fill="#F7C3DB"/>
<path d="M252.508 75.9022C253.279 77.5004 253.938 79.1495 254.482 80.8381C255.272 83.5803 254.416 85.2805 255.617 87.8965C256.029 88.8015 256.621 90.3316 257.263 91.8782C257.444 91.5162 257.608 91.2201 257.707 90.9897C262.413 80.5091 256.226 75.458 253.248 73.7304C253.058 74.473 252.811 75.1991 252.508 75.9022Z" fill="#F7C3DB"/>
<path d="M148.239 252.714C145.365 275.375 147.69 314.687 194.099 344.764C202.452 350.177 209.971 357.822 217.336 364.431C237.425 382.584 256.536 401.792 274.588 421.973C285.639 434.225 296.92 447.102 308.125 459.508C313.869 465.848 319.675 472.129 325.543 478.352C329.865 482.91 336.72 493.582 343.669 493.582H386.37C390.209 493.582 393.697 490.44 393.643 486.584C393.611 484.918 392.981 483.319 391.866 482.081C390.733 480.814 389.168 480.016 387.478 479.844L363.583 477.392L248.131 293.786C242.175 284.309 236.894 268.712 241.501 258.494C259.051 219.632 257.542 181.966 257.542 181.966" stroke="#140109" stroke-width="4.5" stroke-miterlimit="10"/>
<path d="M208.013 356.576C202.979 374.263 194.851 392.225 188.138 403.534C185.706 407.662 182.499 411.282 178.694 414.195C164.939 424.731 145.497 423.606 132.307 412.38L66.7084 356.543L34.2136 327.745L13.5155 353.121C12.5371 354.312 11.1474 355.092 9.62136 355.308C8.09539 355.524 6.54381 355.161 5.27297 354.289C4.00213 353.417 3.10439 352.1 2.75707 350.598C2.40974 349.097 2.63806 347.519 3.39688 346.178L28.8827 301.437C29.684 300.021 31.0145 298.982 32.582 298.547C34.1488 298.112 35.8249 298.316 37.2409 299.117L50.9135 306.795L129.252 350.67C130.555 351.399 132.013 351.808 133.505 351.864C134.998 351.92 136.482 351.621 137.836 350.991C139.19 350.361 140.376 349.419 141.295 348.242C142.214 347.065 142.84 345.687 143.122 344.22L152.402 295.563" stroke="#140109" stroke-width="4.5" stroke-miterlimit="10"/>
<path d="M241.501 108.858V132.989V134.157V134.453C243.985 138.073 245.236 143.228 242.866 147.067C239.691 152.217 232.682 151.362 228.24 148.482C226.932 147.637 225.684 146.702 224.505 145.685C220.551 142.25 217.991 137.486 217.309 132.293C216.944 129.721 217.016 127.107 217.523 124.56C218.916 117.572 221.318 113.558 225.7 108.03C228.443 104.575 232.72 96.2712 227.006 93.4083C220.309 90.0683 224.949 80.2952 232.666 85.1818C238.654 88.9824 247.259 84.2439 250.813 79.149C254.959 73.2094 255.108 64.2095 248.62 59.8495C245.082 57.4638 240.574 56.8879 236.346 57.3486C223.463 58.7636 214.293 68.8329 210.624 80.8107C209.077 85.8947 207.333 90.9294 205.293 95.8653C203.615 99.9128 202.447 104.832 198.712 107.596C191.582 112.911 181.304 110.13 173.259 109.143C156.51 107.086 143.002 114.507 133.771 128.399C126.186 139.834 134.216 156.32 121.53 165.336C117.691 168.051 113.304 169.696 109.108 171.802C103.119 174.846 98.282 179.173 96.5215 185.836C92.9676 199.262 99.2637 215.798 110.424 223.909C115.541 227.627 121.53 229.849 127.749 231.066" stroke="#140109" stroke-width="4.5" stroke-miterlimit="10"/>
<path d="M274.566 153.057C274.599 152.75 274.61 152.454 274.626 152.163C274.906 146.86 274.873 141.364 273.145 136.258C272.085 132.986 270.101 130.091 267.431 127.922C265.073 126.052 262.292 124.84 259.506 123.754C256.72 122.668 253.956 121.725 251.394 120.255C249.227 119.077 247.336 117.448 245.85 115.478C245.329 114.77 245.004 113.938 244.908 113.064C244.812 112.191 244.948 111.308 245.301 110.504" stroke="#140109" stroke-width="4.5" stroke-miterlimit="10"/>
<path d="M236.307 103.417C238.249 106.192 240.881 109.187 244.199 110.267C248.493 111.666 251.384 108.019 252.925 104.47C253.846 102.359 254.482 100.11 255.228 97.9274C255.47 97.209 255.618 96.8635 256.44 96.8306C257.263 96.7977 258.129 96.9622 258.974 96.9622C259.034 96.9605 259.093 96.943 259.144 96.9117C259.195 96.8805 259.237 96.836 259.266 96.7828C259.294 96.7297 259.308 96.6704 259.306 96.6101C259.304 96.5503 259.286 96.4916 259.254 96.4412C258.118 94.7136 256.424 90.0025 255.568 88.1159C254.378 85.4999 255.239 83.8052 254.438 81.0575C253.893 79.3705 253.238 77.7214 252.475 76.1216" stroke="#140109" stroke-width="4.5" stroke-miterlimit="10"/>
<path d="M253.742 71.0486C253.742 71.0486 265.451 75.5402 259.402 89.0373C259.029 89.8545 258.113 91.5601 257.679 92.3279" stroke="#140109" stroke-width="4.5" stroke-miterlimit="10"/>
<path d="M380.041 32.5658C380.041 32.5658 380.107 32.5986 380.238 32.6477L380.041 32.5658Z" fill="#F7C3DB"/>
<path d="M253.095 104.081C252.158 104.21 251.205 103.992 250.417 103.469C249.628 102.946 249.058 102.154 248.812 101.24" stroke="#140109" stroke-width="4.5" stroke-miterlimit="10"/>
<path d="M255.075 86.0055C252.651 84.0312 249.991 86.554 248.367 88.3858" stroke="#140109" stroke-width="4.5" stroke-miterlimit="10"/>
<path d="M217.326 132.297C209.196 132.812 201.166 134.373 193.436 136.943C180.822 141.078 172.135 146.414 161.83 154.778C157.361 158.433 153.125 162.362 149.144 166.542C125.879 190.892 120.379 213.74 127.755 231.093C133.75 245.232 147.57 254.001 161.731 258.471C170.994 261.389 180.646 262.644 190.332 262.924C201.876 263.253 213.52 262.814 224.883 260.621C229.671 259.699 235.188 258.943 238.046 254.495C240.903 250.047 241.144 244.047 239.022 239.281C237.031 234.844 231.657 230.073 226.797 233.555C226.259 233.944 225.816 234.45 225.501 235.036C225.187 235.621 225.009 236.27 224.982 236.934" stroke="#140109" stroke-width="4.5" stroke-miterlimit="10"/>
<path d="M208.545 161.639C209.148 179.825 193.737 189.966 193.737 189.966C188.626 194.106 183.657 198.554 179.478 203.649C176.807 206.901 174.328 210.543 173.1 214.618C172.181 217.397 172.197 220.399 173.143 223.168C174.19 225.729 175.921 227.952 178.145 229.596C182.302 232.848 187.359 234.532 192.372 235.99C197.895 237.571 203.521 238.769 209.209 239.577C212.499 240.049 213.887 239.029 215.39 236.182C216.75 233.605 217.863 230.621 220.38 228.938C223.868 226.596 228.552 226.053 232.589 227.018C238.813 228.499 240.404 233.435 235.331 234.433" stroke="#140109" stroke-width="4.5" stroke-miterlimit="10"/>
<path d="M204.744 285.021L110.166 262.168L87.6582 355.314L179.615 378.173L182.565 376.819L204.744 285.021Z" fill="white"/>
<path d="M161.105 271.926C165.591 240.522 175.315 232.756 181.644 231.204L181.227 230.974C162.12 223.537 148.87 260.332 146.056 268.937L161.105 271.926Z" fill="#959595"/>
<path d="M160.842 274.415C165.328 243.011 175.315 232.733 181.644 231.203L181.227 230.973C162.12 223.536 148.321 262.102 145.497 270.702L160.842 274.415Z" fill="#959595"/>
<path d="M181.227 230.973C159.619 222.571 145.497 270.702 145.497 270.702L160.853 274.415C169.776 226.152 188.922 234.927 188.922 234.927C188.247 234.724 181.227 230.973 181.227 230.973Z" stroke="#140109" stroke-width="4.5" stroke-miterlimit="10"/>
<path d="M109.113 266.608L87.6621 355.345L162.278 373.382L183.729 284.645L109.113 266.608Z" fill="#F7C3DB"/>
<path d="M110.252 261.91L87.6636 355.348L166.229 374.341L188.817 280.903L110.252 261.91Z" fill="white"/>
<path d="M110.621 269.017L91.1672 349.491C90.616 351.772 92.0184 354.069 94.2999 354.621L160.653 370.661C162.935 371.213 165.231 369.81 165.783 367.528L185.237 287.054C185.789 284.772 184.386 282.475 182.104 281.924L115.751 265.884C113.47 265.332 111.173 266.735 110.621 269.017Z" fill="#F7C3DB"/>
<path d="M110.181 262.201L87.6641 355.347L166.23 374.339L188.747 281.194L110.181 262.201Z" stroke="#140109" stroke-width="4.5" stroke-miterlimit="10"/>
<path d="M189.077 281.268L166.56 374.413L182.244 378.205L204.76 285.059L189.077 281.268Z" fill="white"/>
<path d="M189.077 281.268L166.56 374.413L182.244 378.205L204.76 285.059L189.077 281.268Z" stroke="#140109" stroke-width="4.5" stroke-miterlimit="10"/>
<path d="M182.237 378.174L177.185 365.182L166.551 374.385" stroke="#140109" stroke-width="4.5" stroke-miterlimit="10"/>
<path d="M196.907 283.131L177.186 365.182" stroke="#140109" stroke-width="4.5" stroke-miterlimit="10"/>
<path d="M369.917 132.03C369.621 132.079 369.368 132.129 369.045 132.194C366.078 132.712 363.265 133.893 360.818 135.65C358.136 137.723 355.701 141.326 354.517 144.424C352.725 149.13 350.756 153.759 348.61 158.311C345.37 165.328 341.516 172.045 337.093 178.384C332.503 184.833 326.991 191.371 320.048 195.385C319.176 195.912 318.258 196.358 317.305 196.718C316.137 197.212 299.701 178.301 297.891 176.195C290.635 167.755 283.132 159.397 274.626 152.174C272.471 150.331 270.238 148.554 267.946 146.892C260.021 141.077 251.041 136.858 241.506 134.47" stroke="#140109" stroke-width="4.5" stroke-miterlimit="10"/>
<path d="M399.489 131.338C399.522 131.346 399.556 131.346 399.588 131.338C407.189 132.226 404.211 140.42 398.864 140.157C392.957 139.86 387.067 140.157 381.177 140.255C379.553 140.202 377.937 140.499 376.438 141.127C373.477 142.542 373.197 145.701 372.753 148.564C372.161 152.315 371.486 156.067 370.691 159.785C369.144 167.156 367.236 174.428 365.047 181.635C363.632 186.308 362.069 190.958 360.424 195.56C355.62 209.117 349.565 223.497 339.381 233.95C333.754 239.742 326.383 244.02 318.074 243.394C306.376 242.522 295.122 236.649 285.2 229.969C285.159 229.94 285.12 229.907 285.085 229.87C281.382 227.377 277.833 224.663 274.457 221.742C274.457 221.742 260.784 209.567 256.605 200.649" stroke="#140109" stroke-width="4.5" stroke-miterlimit="10"/>
<path d="M421.103 123.969V124.737C421.103 130.035 416.836 130.945 413.15 131.033L341.815 132.678C338.689 132.76 336.062 130.024 335.996 126.607V126.464C335.996 123.113 338.453 120.327 341.541 120.25C341.541 120.25 381.445 119.126 412.349 118.276C412.936 120.146 414.373 121.594 416.156 122.724C417.645 123.62 419.367 124.053 421.103 123.969Z" stroke="#140109" stroke-width="4.5" stroke-miterlimit="10"/>
<path d="M459 48.4859C459 49.359 458.793 50.2195 458.397 50.9977L426.516 116.399C426.142 117.155 425.608 117.82 424.952 118.35C424.296 118.881 423.533 119.262 422.716 119.47C421.398 119.804 420.005 119.659 418.783 119.064C417.807 118.584 416.985 117.84 416.41 116.916C415.835 115.992 415.531 114.926 415.531 113.838C415.536 112.967 415.735 112.11 416.113 111.326L448.01 45.9192C448.589 44.751 449.546 43.8132 450.726 43.2571C451.906 42.7015 453.238 42.5605 454.508 42.8567C455.778 43.1534 456.91 43.8702 457.721 44.8909C458.533 45.9115 458.976 47.1762 458.978 48.4804L459 48.4859Z" stroke="#140109" stroke-width="4.5" stroke-miterlimit="10"/>
<path d="M372.249 35.0343C381.923 35.0343 389.766 27.1915 389.766 17.5171C389.766 7.84265 381.923 0 372.249 0C362.574 0 354.731 7.84265 354.731 17.5171C354.731 27.1915 362.574 35.0343 372.249 35.0343Z" fill="#F7C3DB"/>
<path d="M366.682 23.544C366.101 23.3266 365.558 23.0214 365.069 22.6391C364.21 21.9908 363.619 21.0492 363.408 19.9935C363.198 18.9377 363.383 17.8415 363.929 16.9134C364.284 16.3106 364.775 15.7988 365.362 15.4181C365.95 15.0374 366.617 14.7983 367.312 14.7196C366.927 13.814 366.847 12.8075 367.084 11.8523C367.322 10.8972 367.864 10.0453 368.628 9.42567C369.393 8.80599 370.339 8.45225 371.323 8.41786C372.306 8.38353 373.274 8.67042 374.08 9.23525C375.775 10.4144 376.949 12.493 377.667 14.3906C378.038 15.387 378.31 16.4175 378.479 17.4673C378.561 18.0157 379.12 21.0321 378.682 21.3393C375.786 23.3465 370.395 24.9589 366.682 23.544Z" fill="white"/>
<g opacity="0.72">
<path opacity="0.72" d="M357.468 71.575C362.792 71.575 367.109 67.2588 367.109 61.9335C367.109 56.6087 362.792 52.292 357.468 52.292C352.143 52.292 347.826 56.6087 347.826 61.9335C347.826 67.2588 352.143 71.575 357.468 71.575Z" fill="#F7C3DB"/>
<path opacity="0.72" d="M359.376 66.0249C359.144 66.2772 358.874 66.4916 358.576 66.6611C358.064 66.9594 357.462 67.0614 356.882 66.9473C356.301 66.8333 355.782 66.5113 355.422 66.0413C355.186 65.7337 355.025 65.3755 354.952 64.9944C354.879 64.6137 354.895 64.2211 355 63.8476C354.46 63.8509 353.934 63.6792 353.5 63.3584C353.066 63.037 352.748 62.584 352.593 62.0668C352.439 61.5491 352.456 60.9957 352.643 60.4895C352.83 59.9827 353.176 59.5506 353.629 59.2572C354.658 58.6879 355.829 58.429 357.002 58.5113C357.588 58.5277 358.17 58.6051 358.74 58.7416C359.031 58.8074 360.687 59.1584 360.753 59.4436C361.175 61.3467 360.874 64.4344 359.376 66.0249Z" fill="white"/>
</g>
<path d="M411.746 40.8916L402.284 45.9356C398.852 47.7646 397.554 52.0304 399.383 55.462L404.427 64.9236C406.256 68.3557 410.521 69.655 413.953 67.8254L423.415 62.7819C426.847 60.9524 428.146 56.6872 426.316 53.255L421.273 43.7934C419.443 40.3618 415.178 39.0626 411.746 40.8916Z" fill="#F7C3DB"/>
<path d="M415.536 65.137L422.386 61.4844C423.814 60.7177 424.881 59.4173 425.354 57.8669C425.826 56.3159 425.667 54.6415 424.909 53.2085L420.521 44.9819C419.756 43.5527 418.455 42.4849 416.904 42.0121C415.353 41.5394 413.678 41.7 412.245 42.4591L411.785 42.7059C410.074 45.0806 407.798 49.1445 411.236 50.4224C416.172 52.2706 414.73 55.0402 412.882 58.5886C411.313 61.5666 410.913 65.0492 415.536 65.137Z" fill="white"/>
<path d="M404.869 55.1773C406.299 55.1773 407.458 54.0179 407.458 52.5887C407.458 51.1589 406.299 50.0001 404.869 50.0001C403.44 50.0001 402.281 51.1589 402.281 52.5887C402.281 54.0179 403.44 55.1773 404.869 55.1773Z" fill="white"/>
<path d="M372.983 98.3827C373.942 98.8488 374.964 99.1741 376.016 99.3479C377.948 99.6441 379.924 99.434 381.75 98.738C383.577 98.0421 385.191 96.8843 386.436 95.3772C387.396 94.1816 388.115 92.6844 389.124 91.4778C389.814 90.5976 390.737 89.929 391.789 89.5473C392.15 89.4706 392.487 89.3066 392.771 89.0702C393.462 88.3572 392.288 87.7539 392.052 87.1781C391.699 86.249 391.699 85.2224 392.052 84.2933C392.953 81.8511 392.978 79.172 392.124 76.7128C391.27 74.2536 389.589 72.1668 387.369 70.8083C385.149 69.4493 382.525 68.9031 379.947 69.2617C377.369 69.621 374.995 70.8632 373.23 72.7761C371.486 74.6573 370.438 77.0594 369.353 79.3574C368.387 81.403 367.362 83.4377 366.83 85.637C365.596 90.8471 368.382 96.1396 372.983 98.3827Z" fill="#F7C3DB"/>
<path d="M382.778 79.8734C384.126 79.8734 385.219 78.781 385.219 77.4329C385.219 76.0848 384.126 74.9924 382.778 74.9924C381.43 74.9924 380.337 76.0848 380.337 77.4329C380.337 78.781 381.43 79.8734 382.778 79.8734Z" fill="white"/>
<path d="M379.581 86.6088C380.929 86.6088 382.021 85.5163 382.021 84.1683C382.021 82.8208 380.929 81.7277 379.581 81.7277C378.233 81.7277 377.14 82.8208 377.14 84.1683C377.14 85.5163 378.233 86.6088 379.581 86.6088Z" fill="white"/>
<path d="M376.581 92.9268C377.929 92.9268 379.021 91.8338 379.021 90.4863C379.021 89.1382 377.929 88.0457 376.581 88.0457C375.233 88.0457 374.14 89.1382 374.14 90.4863C374.14 91.8338 375.233 92.9268 376.581 92.9268Z" fill="white"/>
<g opacity="0.54">
<path opacity="0.54" d="M317.997 108.326C318.738 108.228 319.471 108.076 320.19 107.871L328.45 105.545C330.978 104.832 333.638 104.043 335.431 102.118C338.755 98.5472 337.68 92.8763 336.391 88.1708C335.342 84.3207 334.291 80.4707 333.238 76.6207C332.514 73.9662 331.768 71.2679 330.326 68.9425C328.883 66.6172 326.602 64.6209 323.881 64.1931C321.88 63.8805 319.85 64.4179 317.892 64.9499L309.968 67.1437C307.368 67.8512 304.626 68.6464 302.805 70.6372C299.569 74.1746 300.611 79.7248 301.851 84.3481L305.015 96.167C306.957 103.269 310.593 109.258 317.997 108.326Z" fill="#F7C3DB"/>
<path opacity="0.54" d="M317.449 92.2078C317.938 92.6855 318.544 93.0255 319.207 93.1944C319.869 93.3633 320.564 93.3546 321.223 93.1698C321.881 92.9844 322.479 92.6295 322.956 92.1398C323.433 91.6506 323.774 91.044 323.942 90.3815L324.864 86.7728L325.779 83.1586C325.948 82.4961 325.938 81.8006 325.753 81.1431C325.567 80.4849 325.212 79.8877 324.722 79.4111C324.232 78.934 323.626 78.5945 322.963 78.4261C322.301 78.2583 321.605 78.2671 320.948 78.453L317.366 79.4621L313.78 80.4712C313.123 80.6583 312.527 81.0153 312.051 81.5056C311.576 81.9959 311.238 82.603 311.071 83.2655C310.905 83.9275 310.915 84.6224 311.102 85.2794C311.289 85.9364 311.645 86.5326 312.134 87.0086L314.805 89.6082L317.449 92.2078Z" fill="white"/>
</g>
</svg>
