<svg width="150" height="87" viewBox="0 0 150 87" fill="none" xmlns="http://www.w3.org/2000/svg">
<mask id="mask0_3_26493" style="mask-type:luminance" maskUnits="userSpaceOnUse" x="18" y="0" width="115" height="59">
<path d="M133 0H18V59H133V0Z" fill="white"/>
</mask>
<g mask="url(#mask0_3_26493)">
<path d="M52.8493 49.5156V49.5234L51.646 48.9238L52.8493 49.5156Z" fill="#140109"/>
<path d="M102.508 16.9439V0L82.6728 9.07932H68.343L48.5078 0L48.5471 17.0841L18 32.2682L51.6459 48.924L52.8492 49.5158L53.557 49.8662V48.1297L75.5079 36.146L97.1441 47.3277L97.4508 48.1297V49.8895L98.7957 49.2121L133 32.276L102.508 16.9439ZM31.2837 35.3595L25.0233 32.2604L50.1987 19.7393L55.3974 22.3323L31.2837 35.3595ZM64.7881 34.8456C63.3331 34.8456 62.1455 33.6776 62.1455 32.2292C62.1455 30.7809 63.3331 29.6051 64.7881 29.6051C66.2431 29.6051 67.4385 30.7809 67.4385 32.2292C67.4385 33.6776 66.2509 34.8456 64.7881 34.8456ZM75.5079 26.6462L68.343 23.0954L75.5079 19.1553L82.6728 23.0954L75.5079 26.6462ZM88.0759 34.8456C86.613 34.8456 85.4333 33.6776 85.4333 32.2292C85.4333 30.7809 86.613 29.6051 88.0759 29.6051C89.5388 29.6051 90.7264 30.7809 90.7264 32.2292C90.7264 33.6776 89.5388 34.8456 88.0759 34.8456ZM95.9014 22.1688L100.896 19.6303L126.008 32.2526L119.992 35.2349L95.9014 22.1688Z" fill="#140109"/>
<path d="M68.3428 55.4494L75.5077 51.5093L82.6726 55.4494L75.5077 59.0001L68.3428 55.4494Z" fill="#140109"/>
</g>
<path d="M0.895996 83V71.496H10.256C10.6507 71.496 11.008 71.5973 11.328 71.8C11.6587 71.992 11.92 72.2533 12.112 72.584C12.3147 72.904 12.416 73.2613 12.416 73.656V76.824C12.416 77.208 12.3147 77.5653 12.112 77.896C11.92 78.2267 11.6587 78.488 11.328 78.68C11.008 78.872 10.6507 78.968 10.256 78.968L2.816 78.984V83H0.895996ZM3.104 77.032H10.192C10.2667 77.032 10.3307 77.0053 10.384 76.952C10.448 76.8987 10.48 76.8293 10.48 76.744V73.704C10.48 73.6293 10.448 73.5653 10.384 73.512C10.3307 73.448 10.2667 73.416 10.192 73.416H3.104C3.02933 73.416 2.96 73.448 2.896 73.512C2.84267 73.5653 2.816 73.6293 2.816 73.704V76.744C2.816 76.8293 2.84267 76.8987 2.896 76.952C2.96 77.0053 3.02933 77.032 3.104 77.032ZM13.5843 83V71.48H24.1603V73.416H15.5203V76.28H22.4803V78.2H15.5203V81.064H24.1603V83H13.5843ZM25.8343 83V71.48H35.1943C35.5889 71.48 35.9463 71.576 36.2663 71.768C36.5969 71.96 36.8583 72.2213 37.0503 72.552C37.2529 72.8827 37.3543 73.2453 37.3543 73.64V80.84C37.3543 81.2347 37.2529 81.5973 37.0503 81.928C36.8583 82.2587 36.5969 82.52 36.2663 82.712C35.9463 82.904 35.5889 83 35.1943 83H25.8343ZM28.0423 81.064H35.1303C35.2049 81.064 35.2689 81.0373 35.3223 80.984C35.3863 80.9307 35.4183 80.8613 35.4183 80.776V73.704C35.4183 73.6187 35.3863 73.5493 35.3223 73.496C35.2689 73.4427 35.2049 73.416 35.1303 73.416H28.0423C27.9569 73.416 27.8823 73.4427 27.8183 73.496C27.7649 73.5493 27.7383 73.6187 27.7383 73.704V80.776C27.7383 80.8613 27.7649 80.9307 27.8183 80.984C27.8823 81.0373 27.9569 81.064 28.0423 81.064ZM48.458 83L44.922 78.776H47.434L50.618 82.552V83H48.458ZM39.146 83V71.496H48.506C48.9007 71.496 49.258 71.5973 49.578 71.8C49.9087 71.992 50.17 72.2533 50.362 72.584C50.5647 72.904 50.666 73.2613 50.666 73.656V76.824C50.666 77.208 50.5647 77.5653 50.362 77.896C50.17 78.2267 49.9087 78.488 49.578 78.68C49.258 78.872 48.9007 78.968 48.506 78.968L41.066 78.984V83H39.146ZM41.354 77.032H48.442C48.5167 77.032 48.5807 77.0053 48.634 76.952C48.698 76.8987 48.73 76.8293 48.73 76.744V73.704C48.73 73.6293 48.698 73.5653 48.634 73.512C48.5807 73.448 48.5167 73.416 48.442 73.416H41.354C41.2793 73.416 41.21 73.448 41.146 73.512C41.0927 73.5653 41.066 73.6293 41.066 73.704V76.744C41.066 76.8293 41.0927 76.8987 41.146 76.952C41.21 77.0053 41.2793 77.032 41.354 77.032ZM54.4771 83C54.0825 83 53.7198 82.904 53.3891 82.712C53.0585 82.52 52.7971 82.2587 52.6051 81.928C52.4131 81.5973 52.3171 81.2347 52.3171 80.84V73.64C52.3171 73.2453 52.4131 72.8827 52.6051 72.552C52.7971 72.2213 53.0585 71.96 53.3891 71.768C53.7198 71.576 54.0825 71.48 54.4771 71.48H61.6771C62.0718 71.48 62.4291 71.576 62.7491 71.768C63.0798 71.96 63.3411 72.2213 63.5331 72.552C63.7358 72.8827 63.8371 73.2453 63.8371 73.64V80.84C63.8371 81.2347 63.7358 81.5973 63.5331 81.928C63.3411 82.2587 63.0798 82.52 62.7491 82.712C62.4291 82.904 62.0718 83 61.6771 83H54.4771ZM54.5251 81.064H61.6131C61.6878 81.064 61.7518 81.0373 61.8051 80.984C61.8691 80.9307 61.9011 80.8613 61.9011 80.776V73.704C61.9011 73.6187 61.8691 73.5493 61.8051 73.496C61.7518 73.4427 61.6878 73.416 61.6131 73.416H54.5251C54.4505 73.416 54.3811 73.4427 54.3171 73.496C54.2638 73.5493 54.2371 73.6187 54.2371 73.704V80.776C54.2371 80.8613 54.2638 80.9307 54.3171 80.984C54.3811 81.0373 54.4505 81.064 54.5251 81.064ZM72.5248 83C72.1301 83 71.7674 82.904 71.4368 82.712C71.1061 82.52 70.8448 82.2587 70.6528 81.928C70.4608 81.5973 70.3648 81.2347 70.3648 80.84V73.64C70.3648 73.2453 70.4608 72.8827 70.6528 72.552C70.8448 72.2213 71.1061 71.96 71.4368 71.768C71.7674 71.576 72.1301 71.48 72.5248 71.48H81.8528V73.416H72.8608C72.6901 73.416 72.5514 73.4693 72.4448 73.576C72.3381 73.672 72.2848 73.8053 72.2848 73.976V80.504C72.2848 80.6747 72.3381 80.8133 72.4448 80.92C72.5514 81.016 72.6901 81.064 72.8608 81.064H81.8528V83H72.5248ZM83.537 83V71.48H85.457V76.28H93.393V71.48H95.313V83H93.393V78.2H85.457V83H83.537ZM97.1624 83V73.64C97.1624 73.2453 97.2584 72.8827 97.4504 72.552C97.6424 72.2213 97.9037 71.96 98.2344 71.768C98.565 71.576 98.9277 71.48 99.3224 71.48H106.522C106.917 71.48 107.274 71.576 107.594 71.768C107.925 71.96 108.186 72.2213 108.378 72.552C108.581 72.8827 108.682 73.2453 108.682 73.64V83H106.746V79.048H99.0824V83H97.1624ZM99.0824 77.128H106.746V73.704C106.746 73.6187 106.714 73.5493 106.65 73.496C106.597 73.4427 106.533 73.416 106.458 73.416H99.3704C99.2957 73.416 99.2264 73.4427 99.1624 73.496C99.109 73.5493 99.0824 73.6187 99.0824 73.704V77.128ZM112.665 83C112.271 83 111.908 82.904 111.577 82.712C111.247 82.52 110.985 82.2587 110.793 81.928C110.601 81.5973 110.505 81.2347 110.505 80.84V73.64C110.505 73.2453 110.601 72.8827 110.793 72.552C110.985 72.2213 111.247 71.96 111.577 71.768C111.908 71.576 112.271 71.48 112.665 71.48H121.993V73.416H113.001C112.831 73.416 112.692 73.4693 112.585 73.576C112.479 73.672 112.425 73.8053 112.425 73.976V80.504C112.425 80.6747 112.479 80.8133 112.585 80.92C112.692 81.016 112.831 81.064 113.001 81.064H121.993V83H112.665ZM125.79 83C125.395 83 125.032 82.904 124.702 82.712C124.371 82.52 124.11 82.2587 123.918 81.928C123.726 81.5973 123.63 81.2347 123.63 80.84V73.64C123.63 73.2453 123.726 72.8827 123.918 72.552C124.11 72.2213 124.371 71.96 124.702 71.768C125.032 71.576 125.395 71.48 125.79 71.48H132.99C133.384 71.48 133.742 71.576 134.062 71.768C134.392 71.96 134.654 72.2213 134.846 72.552C135.048 72.8827 135.15 73.2453 135.15 73.64V80.84C135.15 81.2347 135.048 81.5973 134.846 81.928C134.654 82.2587 134.392 82.52 134.062 82.712C133.742 82.904 133.384 83 132.99 83H125.79ZM125.838 81.064H132.926C133 81.064 133.064 81.0373 133.118 80.984C133.182 80.9307 133.214 80.8613 133.214 80.776V73.704C133.214 73.6187 133.182 73.5493 133.118 73.496C133.064 73.4427 133 73.416 132.926 73.416H125.838C125.763 73.416 125.694 73.4427 125.63 73.496C125.576 73.5493 125.55 73.6187 125.55 73.704V80.776C125.55 80.8613 125.576 80.9307 125.63 80.984C125.694 81.0373 125.763 81.064 125.838 81.064ZM128.334 70.52L129.022 67.752H130.942L130.254 70.52H128.334ZM136.912 83V71.48H139.104L146.496 80.28V71.48H148.432V83H146.24L138.832 74.184V83H136.912Z" fill="#140109"/>
</svg>
