<svg xmlns="http://www.w3.org/2000/svg" viewBox="0 0 64 64" id="user"><path d="M32 32a10 10 0 1 1 10-10 10 10 0 0 1-10 10zm0-15.91a6 6 0 1 0 6 6 6 6 0 0 0-6-6.01zm0 43.07a26.83 26.83 0 0 1-15.68-5 2 2 0 0 1-.83-1.42 7.13 7.13 0 0 1 0-.8 16.54 16.54 0 1 1 33.08 0 7.13 7.13 0 0 1 0 .8 2 2 0 0 1-.83 1.42 26.83 26.83 0 0 1-15.74 5zm-12.53-7.7a23.07 23.07 0 0 0 25.06 0 12.54 12.54 0 0 0-25.06 0zm27.05 1.07z"></path><path d="M32 59.16a26.83 26.83 0 0 1-15.68-5 27.15 27.15 0 1 1 34.22-42 2 2 0 0 1-2.74 2.92 23.15 23.15 0 1 0-29.17 35.81 23.07 23.07 0 0 0 26.73 0 23.17 23.17 0 0 0 8.18-27.4A2 2 0 1 1 57.26 22a27.16 27.16 0 0 1-9.59 32.13A26.83 26.83 0 0 1 32 59.16Z"></path></svg>